<svg xmlns="http://www.w3.org/2000/svg" viewBox="0 0 480 440" width="480" height="440" fill="none">
  <path d="M46 214C60 262 96 280 118 300l32-8 28 56 36-18 26 74 30-70 34 18 24-56 36 4c28-20 60-42 70-86z" fill="#5a43b5"/>
  <path d="M46 214c14 48 50 66 72 86l32-8-22-56z" fill="#463193"/>
  <path d="M150 292l28 56 36-18-18-62z" fill="#513ba6"/>
  <path d="M214 330l26 74 30-70-26-58z" fill="#6c54cc"/>
  <path d="M270 334l34 18 24-56-40-28z" fill="#5f48bd"/>
  <path d="M328 296l36 4c28-20 60-42 70-86l-82 26z" fill="#7a64dc"/>
  <ellipse cx="240" cy="222" rx="196" ry="58" fill="#1f8f72"/>
  <ellipse cx="240" cy="208" rx="196" ry="58" fill="#45cc9b"/>
  <ellipse cx="232" cy="200" rx="164" ry="42" fill="#66e0b0" opacity=".6"/>
  <ellipse cx="240" cy="230" rx="64" ry="17" fill="#f6d28b"/>
  <ellipse cx="240" cy="228" rx="50" ry="11" fill="#ffe3a8"/>
  <path d="M150 214l90-22 90 22-90 22z" fill="#d7d3ee"/>
  <path d="M150 214l90 22v10l-90-22zM330 214l-90 22v10l90-22z" fill="#a9a4c8"/>
  <path d="M168 210V120a72 72 0 01144 0v90h-30v-88a42 42 0 00-84 0v88z" fill="#8a6cff"/>
  <path d="M282 210v-88a42 42 0 00-16-33l20-24a72 72 0 0126 55v90z" fill="#6a4fe0"/>
  <path d="M198 210v-88a42 42 0 0184 0v88z" fill="url(#g)"/>
  <ellipse cx="240" cy="150" rx="26" ry="38" stroke="#b7fbf8" stroke-width="4" opacity=".75"/>
  <ellipse cx="240" cy="154" rx="13" ry="22" stroke="#fff" stroke-width="3" opacity=".8"/>
  <circle cx="240" cy="34" r="10" fill="#ffc24b"/>
  <path d="M240 18V8M222 26l-7-7M258 26l7-7" stroke="#ffd98a" stroke-width="4" stroke-linecap="round"/>
  <rect x="172" y="120" width="22" height="8" rx="2" fill="#b9a6ff"/>
  <rect x="286" y="120" width="22" height="8" rx="2" fill="#b9a6ff"/>
  <rect x="172" y="166" width="22" height="8" rx="2" fill="#b9a6ff"/>
  <rect x="286" y="166" width="22" height="8" rx="2" fill="#b9a6ff"/>
  <path d="M96 208l14-34 14 34-14 10z" fill="#4fe3e0"/>
  <path d="M110 174l14 34-14 10z" fill="#2bb5c2"/>
  <path d="M372 212l11-26 11 26-11 8z" fill="#ffc24b"/>
  <path d="M383 186l11 26-11 8z" fill="#e59c1c"/>
  <path d="M352 200l8-18 8 18-8 6z" fill="#ff9ecb"/>
  <defs><radialGradient id="g" cx="0" cy="0" r="1" gradientUnits="userSpaceOnUse" gradientTransform="matrix(0 70 -48 0 240 150)"><stop stop-color="#7ff5f0"/><stop offset=".55" stop-color="#2bb5c2"/><stop offset="1" stop-color="#1b4f8f"/></radialGradient></defs>
</svg>
